<?xml version="1.0" encoding="utf-8"?>
<!DOCTYPE svg PUBLIC "-//W3C//DTD SVG 1.1//EN" "http://www.w3.org/Graphics/SVG/1.1/DTD/svg11.dtd">
<svg class="decor" height="100%" preserveAspectRatio="none" version="1.1" viewBox="0 0 2050 6" width="100%" xmlns="http://www.w3.org/2000/svg" style="stroke:#FFFFFF; fill:#FFFFFF; stroke-width:2px;"><path d="M 0 3 L10 2 L20 3 L30 3 L40 1 L50 2 L60 3 L70 5 L80 5 L90 3 L100 3 L110 5 L120 4 L130 3 L140 5 L150 2 L160 3 L170 5 L180 2 L190 3 L200 4 L210 3 L220 4 L230 1 L240 4 L250 2 L260 4 L270 3 L280 4 L290 3 L300 4 L310 4 L320 5 L330 5 L340 3 L350 2 L360 4 L370 4 L380 2 L390 4 L400 3 L410 4 L420 2 L430 5 L440 2 L450 2 L460 2 L470 4 L480 3 L490 3 L500 4 L510 3 L520 3 L530 4 L540 2 L550 1 L560 2 L570 2 L580 1 L590 3 L600 2 L610 1 L620 4 L630 4 L640 4 L650 4 L660 3 L670 4 L680 4 L690 3 L700 5 L710 5 L720 4 L730 1 L740 4 L750 5 L760 4 L770 2 L780 3 L790 2 L800 5 L810 1 L820 4 L830 2 L840 3 L850 1 L860 2 L870 4 L880 3 L890 4 L900 4 L910 4 L920 1 L930 3 L940 5 L950 1 L960 3 L970 4 L980 4 L990 5 L1000 2 L1010 4 L1020 4 L1030 1 L1040 4 L1050 1 L1060 2 L1070 1 L1080 5 L1090 1 L1100 3 L1110 3 L1120 4 L1130 1 L1140 1 L1150 2 L1160 2 L1170 3 L1180 2 L1190 4 L1200 1 L1210 4 L1220 2 L1230 1 L1240 5 L1250 2 L1260 1 L1270 3 L1280 5 L1290 3 L1300 1 L1310 4 L1320 3 L1330 3 L1340 3 L1350 3 L1360 2 L1370 3 L1380 3 L1390 1 L1400 2 L1410 2 L1420 5 L1430 5 L1440 2 L1450 1 L1460 1 L1470 2 L1480 2 L1490 3 L1500 2 L1510 4 L1520 5 L1530 4 L1540 2 L1550 1 L1560 4 L1570 2 L1580 4 L1590 5 L1600 2 L1610 3 L1620 1 L1630 3 L1640 3 L1650 4 L1660 3 L1670 4 L1680 3 L1690 2 L1700 2 L1710 3 L1720 3 L1730 3 L1740 1 L1750 2 L1760 1 L1770 1 L1780 3 L1790 4 L1800 4 L1810 2 L1820 2 L1830 3 L1840 2 L1850 4 L1860 3 L1870 4 L1880 2 L1890 2 L1900 5 L1910 3 L1920 3 L1930 4 L1940 4 L1950 3 L1960 2 L1970 2 L1980 5 L1990 4 L2000 4 L2010 2 L2020 4 L2030 1 L2040 3 L2050 3"></path><rect x="0" y="3" width="100%" height="3" stroke="#FFFFFF" fill="#FFFFFF" stroke-width="0"/></svg>